ISO-10303-21;
HEADER;
/* Generated by software containing ST-Developer
 * from STEP Tools, Inc. (www.steptools.com) 
 */

FILE_DESCRIPTION(
/* description */ (''),
/* implementation_level */ '2;1');

FILE_NAME(
/* name */ 
'C:/Users/Kshitij Jungare/Videos/Youtube content/Fusion 360 Basics/L B
racket.step',
/* time_stamp */ '2020-11-26T18:09:34+06:00',
/* author */ (''),
/* organization */ (''),
/* preprocessor_version */ 'ST-DEVELOPER v18.1',
/* originating_system */ 'Autodesk Translation Framework v9.3.0.1241',
/* authorisation */ '');

FILE_SCHEMA (('AUTOMOTIVE_DESIGN { 1 0 10303 214 3 1 1 }'));
ENDSEC;

DATA;
#10=MECHANICAL_DESIGN_GEOMETRIC_PRESENTATION_REPRESENTATION('',(#13),#1023);
#11=SHAPE_REPRESENTATION_RELATIONSHIP('SRR','None',#1030,#12);
#12=ADVANCED_BREP_SHAPE_REPRESENTATION('',(#14),#1022);
#13=STYLED_ITEM('',(#1039),#14);
#14=MANIFOLD_SOLID_BREP('Body1',#595);
#15=FACE_BOUND('',#75,.T.);
#16=FACE_BOUND('',#76,.T.);
#17=FACE_BOUND('',#80,.T.);
#18=FACE_BOUND('',#81,.T.);
#19=FACE_BOUND('',#85,.T.);
#20=FACE_BOUND('',#86,.T.);
#21=FACE_BOUND('',#103,.T.);
#22=FACE_BOUND('',#104,.T.);
#23=PLANE('',#612);
#24=PLANE('',#616);
#25=PLANE('',#626);
#26=PLANE('',#631);
#27=PLANE('',#636);
#28=PLANE('',#644);
#29=PLANE('',#645);
#30=PLANE('',#652);
#31=PLANE('',#653);
#32=PLANE('',#654);
#33=PLANE('',#658);
#34=PLANE('',#664);
#35=PLANE('',#667);
#36=PLANE('',#670);
#37=FACE_OUTER_BOUND('',#67,.T.);
#38=FACE_OUTER_BOUND('',#68,.T.);
#39=FACE_OUTER_BOUND('',#69,.T.);
#40=FACE_OUTER_BOUND('',#70,.T.);
#41=FACE_OUTER_BOUND('',#71,.T.);
#42=FACE_OUTER_BOUND('',#72,.T.);
#43=FACE_OUTER_BOUND('',#73,.T.);
#44=FACE_OUTER_BOUND('',#74,.T.);
#45=FACE_OUTER_BOUND('',#77,.T.);
#46=FACE_OUTER_BOUND('',#78,.T.);
#47=FACE_OUTER_BOUND('',#79,.T.);
#48=FACE_OUTER_BOUND('',#82,.T.);
#49=FACE_OUTER_BOUND('',#83,.T.);
#50=FACE_OUTER_BOUND('',#84,.T.);
#51=FACE_OUTER_BOUND('',#87,.T.);
#52=FACE_OUTER_BOUND('',#88,.T.);
#53=FACE_OUTER_BOUND('',#89,.T.);
#54=FACE_OUTER_BOUND('',#90,.T.);
#55=FACE_OUTER_BOUND('',#91,.T.);
#56=FACE_OUTER_BOUND('',#92,.T.);
#57=FACE_OUTER_BOUND('',#93,.T.);
#58=FACE_OUTER_BOUND('',#94,.T.);
#59=FACE_OUTER_BOUND('',#95,.T.);
#60=FACE_OUTER_BOUND('',#96,.T.);
#61=FACE_OUTER_BOUND('',#97,.T.);
#62=FACE_OUTER_BOUND('',#98,.T.);
#63=FACE_OUTER_BOUND('',#99,.T.);
#64=FACE_OUTER_BOUND('',#100,.T.);
#65=FACE_OUTER_BOUND('',#101,.T.);
#66=FACE_OUTER_BOUND('',#102,.T.);
#67=EDGE_LOOP('',(#381,#382,#383,#384));
#68=EDGE_LOOP('',(#385,#386,#387,#388));
#69=EDGE_LOOP('',(#389,#390,#391,#392));
#70=EDGE_LOOP('',(#393,#394,#395,#396));
#71=EDGE_LOOP('',(#397,#398,#399,#400));
#72=EDGE_LOOP('',(#401,#402,#403,#404));
#73=EDGE_LOOP('',(#405,#406,#407,#408));
#74=EDGE_LOOP('',(#409,#410,#411,#412,#413,#414));
#75=EDGE_LOOP('',(#415));
#76=EDGE_LOOP('',(#416));
#77=EDGE_LOOP('',(#417,#418,#419,#420,#421,#422,#423,#424));
#78=EDGE_LOOP('',(#425,#426,#427,#428));
#79=EDGE_LOOP('',(#429,#430,#431,#432,#433,#434,#435,#436,#437,#438,#439,
#440,#441,#442));
#80=EDGE_LOOP('',(#443));
#81=EDGE_LOOP('',(#444));
#82=EDGE_LOOP('',(#445,#446,#447,#448));
#83=EDGE_LOOP('',(#449,#450,#451,#452,#453,#454));
#84=EDGE_LOOP('',(#455,#456,#457,#458,#459,#460,#461,#462,#463,#464,#465,
#466,#467,#468));
#85=EDGE_LOOP('',(#469));
#86=EDGE_LOOP('',(#470));
#87=EDGE_LOOP('',(#471,#472,#473,#474));
#88=EDGE_LOOP('',(#475,#476,#477,#478,#479,#480));
#89=EDGE_LOOP('',(#481,#482,#483,#484,#485,#486));
#90=EDGE_LOOP('',(#487,#488,#489,#490,#491,#492));
#91=EDGE_LOOP('',(#493,#494,#495,#496));
#92=EDGE_LOOP('',(#497,#498,#499,#500));
#93=EDGE_LOOP('',(#501,#502,#503,#504));
#94=EDGE_LOOP('',(#505,#506,#507,#508));
#95=EDGE_LOOP('',(#509,#510,#511,#512));
#96=EDGE_LOOP('',(#513,#514,#515,#516));
#97=EDGE_LOOP('',(#517,#518,#519,#520));
#98=EDGE_LOOP('',(#521,#522,#523,#524,#525,#526,#527,#528));
#99=EDGE_LOOP('',(#529,#530,#531,#532));
#100=EDGE_LOOP('',(#533,#534,#535,#536));
#101=EDGE_LOOP('',(#537,#538,#539,#540));
#102=EDGE_LOOP('',(#541,#542,#543,#544,#545,#546));
#103=EDGE_LOOP('',(#547));
#104=EDGE_LOOP('',(#548));
#105=LINE('',#855,#157);
#106=LINE('',#858,#158);
#107=LINE('',#861,#159);
#108=LINE('',#863,#160);
#109=LINE('',#864,#161);
#110=LINE('',#870,#162);
#111=LINE('',#873,#163);
#112=LINE('',#876,#164);
#113=LINE('',#878,#165);
#114=LINE('',#879,#166);
#115=LINE('',#885,#167);
#116=LINE('',#891,#168);
#117=LINE('',#897,#169);
#118=LINE('',#900,#170);
#119=LINE('',#903,#171);
#120=LINE('',#907,#172);
#121=LINE('',#910,#173);
#122=LINE('',#917,#174);
#123=LINE('',#919,#175);
#124=LINE('',#921,#176);
#125=LINE('',#925,#177);
#126=LINE('',#926,#178);
#127=LINE('',#932,#179);
#128=LINE('',#935,#180);
#129=LINE('',#937,#181);
#130=LINE('',#939,#182);
#131=LINE('',#943,#183);
#132=LINE('',#946,#184);
#133=LINE('',#947,#185);
#134=LINE('',#949,#186);
#135=LINE('',#951,#187);
#136=LINE('',#952,#188);
#137=LINE('',#961,#189);
#138=LINE('',#964,#190);
#139=LINE('',#967,#191);
#140=LINE('',#968,#192);
#141=LINE('',#972,#193);
#142=LINE('',#975,#194);
#143=LINE('',#976,#195);
#144=LINE('',#977,#196);
#145=LINE('',#988,#197);
#146=LINE('',#990,#198);
#147=LINE('',#992,#199);
#148=LINE('',#994,#200);
#149=LINE('',#996,#201);
#150=LINE('',#999,#202);
#151=LINE('',#1003,#203);
#152=LINE('',#1007,#204);
#153=LINE('',#1008,#205);
#154=LINE('',#1012,#206);
#155=LINE('',#1015,#207);
#156=LINE('',#1016,#208);
#157=VECTOR('',#677,10.);
#158=VECTOR('',#680,10.);
#159=VECTOR('',#683,10.);
#160=VECTOR('',#684,10.);
#161=VECTOR('',#685,10.);
#162=VECTOR('',#690,10.);
#163=VECTOR('',#693,10.);
#164=VECTOR('',#696,10.);
#165=VECTOR('',#697,10.);
#166=VECTOR('',#698,10.);
#167=VECTOR('',#705,10.);
#168=VECTOR('',#712,10.);
#169=VECTOR('',#717,10.);
#170=VECTOR('',#720,10.);
#171=VECTOR('',#723,10.);
#172=VECTOR('',#726,10.);
#173=VECTOR('',#729,10.);
#174=VECTOR('',#736,10.);
#175=VECTOR('',#737,10.);
#176=VECTOR('',#738,10.);
#177=VECTOR('',#741,10.);
#178=VECTOR('',#742,10.);
#179=VECTOR('',#747,10.);
#180=VECTOR('',#750,10.);
#181=VECTOR('',#753,10.);
#182=VECTOR('',#754,10.);
#183=VECTOR('',#757,10.);
#184=VECTOR('',#760,10.);
#185=VECTOR('',#761,10.);
#186=VECTOR('',#762,10.);
#187=VECTOR('',#763,10.);
#188=VECTOR('',#764,10.);
#189=VECTOR('',#773,10.);
#190=VECTOR('',#778,10.);
#191=VECTOR('',#781,10.);
#192=VECTOR('',#782,10.);
#193=VECTOR('',#785,10.);
#194=VECTOR('',#788,10.);
#195=VECTOR('',#789,10.);
#196=VECTOR('',#790,10.);
#197=VECTOR('',#807,5.);
#198=VECTOR('',#810,5.);
#199=VECTOR('',#813,10.);
#200=VECTOR('',#816,10.);
#201=VECTOR('',#819,10.);
#202=VECTOR('',#822,5.);
#203=VECTOR('',#827,5.);
#204=VECTOR('',#832,10.);
#205=VECTOR('',#833,10.);
#206=VECTOR('',#838,10.);
#207=VECTOR('',#841,10.);
#208=VECTOR('',#842,10.);
#209=CIRCLE('',#610,5.);
#210=CIRCLE('',#611,5.);
#211=CIRCLE('',#614,5.);
#212=CIRCLE('',#615,5.);
#213=CIRCLE('',#618,5.);
#214=CIRCLE('',#619,5.);
#215=CIRCLE('',#621,5.);
#216=CIRCLE('',#622,5.);
#217=CIRCLE('',#624,5.);
#218=CIRCLE('',#625,5.);
#219=CIRCLE('',#627,9.99999999999998);
#220=CIRCLE('',#628,9.99999999999998);
#221=CIRCLE('',#629,5.);
#222=CIRCLE('',#630,5.);
#223=CIRCLE('',#632,5.);
#224=CIRCLE('',#634,5.);
#225=CIRCLE('',#635,5.);
#226=CIRCLE('',#637,9.99999999999998);
#227=CIRCLE('',#638,9.99999999999998);
#228=CIRCLE('',#639,5.);
#229=CIRCLE('',#640,5.);
#230=CIRCLE('',#642,5.);
#231=CIRCLE('',#643,5.);
#232=CIRCLE('',#646,9.99999999999999);
#233=CIRCLE('',#647,9.99999999999998);
#234=CIRCLE('',#648,5.);
#235=CIRCLE('',#649,5.);
#236=CIRCLE('',#651,5.);
#237=CIRCLE('',#661,5.);
#238=CIRCLE('',#663,5.);
#239=CIRCLE('',#666,9.99999999999998);
#240=CIRCLE('',#669,9.99999999999999);
#241=VERTEX_POINT('',#851);
#242=VERTEX_POINT('',#852);
#243=VERTEX_POINT('',#854);
#244=VERTEX_POINT('',#856);
#245=VERTEX_POINT('',#860);
#246=VERTEX_POINT('',#862);
#247=VERTEX_POINT('',#866);
#248=VERTEX_POINT('',#867);
#249=VERTEX_POINT('',#869);
#250=VERTEX_POINT('',#871);
#251=VERTEX_POINT('',#875);
#252=VERTEX_POINT('',#877);
#253=VERTEX_POINT('',#881);
#254=VERTEX_POINT('',#883);
#255=VERTEX_POINT('',#887);
#256=VERTEX_POINT('',#889);
#257=VERTEX_POINT('',#893);
#258=VERTEX_POINT('',#894);
#259=VERTEX_POINT('',#896);
#260=VERTEX_POINT('',#898);
#261=VERTEX_POINT('',#902);
#262=VERTEX_POINT('',#904);
#263=VERTEX_POINT('',#906);
#264=VERTEX_POINT('',#908);
#265=VERTEX_POINT('',#911);
#266=VERTEX_POINT('',#913);
#267=VERTEX_POINT('',#916);
#268=VERTEX_POINT('',#918);
#269=VERTEX_POINT('',#920);
#270=VERTEX_POINT('',#922);
#271=VERTEX_POINT('',#924);
#272=VERTEX_POINT('',#928);
#273=VERTEX_POINT('',#929);
#274=VERTEX_POINT('',#931);
#275=VERTEX_POINT('',#933);
#276=VERTEX_POINT('',#938);
#277=VERTEX_POINT('',#940);
#278=VERTEX_POINT('',#942);
#279=VERTEX_POINT('',#945);
#280=VERTEX_POINT('',#948);
#281=VERTEX_POINT('',#950);
#282=VERTEX_POINT('',#953);
#283=VERTEX_POINT('',#955);
#284=VERTEX_POINT('',#958);
#285=VERTEX_POINT('',#960);
#286=VERTEX_POINT('',#966);
#287=VERTEX_POINT('',#969);
#288=VERTEX_POINT('',#971);
#289=VERTEX_POINT('',#973);
#290=VERTEX_POINT('',#978);
#291=VERTEX_POINT('',#980);
#292=VERTEX_POINT('',#998);
#293=VERTEX_POINT('',#1002);
#294=VERTEX_POINT('',#1006);
#295=VERTEX_POINT('',#1010);
#296=VERTEX_POINT('',#1014);
#297=EDGE_CURVE('',#241,#242,#209,.T.);
#298=EDGE_CURVE('',#242,#243,#105,.T.);
#299=EDGE_CURVE('',#243,#244,#210,.T.);
#300=EDGE_CURVE('',#244,#241,#106,.T.);
#301=EDGE_CURVE('',#245,#242,#107,.T.);
#302=EDGE_CURVE('',#246,#245,#108,.T.);
#303=EDGE_CURVE('',#246,#243,#109,.T.);
#304=EDGE_CURVE('',#247,#248,#211,.T.);
#305=EDGE_CURVE('',#248,#249,#110,.T.);
#306=EDGE_CURVE('',#249,#250,#212,.T.);
#307=EDGE_CURVE('',#250,#247,#111,.T.);
#308=EDGE_CURVE('',#251,#248,#112,.T.);
#309=EDGE_CURVE('',#252,#251,#113,.T.);
#310=EDGE_CURVE('',#249,#252,#114,.T.);
#311=EDGE_CURVE('',#253,#252,#213,.T.);
#312=EDGE_CURVE('',#251,#254,#214,.T.);
#313=EDGE_CURVE('',#254,#253,#115,.T.);
#314=EDGE_CURVE('',#255,#246,#215,.T.);
#315=EDGE_CURVE('',#245,#256,#216,.T.);
#316=EDGE_CURVE('',#256,#255,#116,.T.);
#317=EDGE_CURVE('',#257,#258,#217,.T.);
#318=EDGE_CURVE('',#258,#259,#117,.T.);
#319=EDGE_CURVE('',#259,#260,#218,.T.);
#320=EDGE_CURVE('',#260,#257,#118,.T.);
#321=EDGE_CURVE('',#258,#261,#119,.T.);
#322=EDGE_CURVE('',#261,#262,#219,.T.);
#323=EDGE_CURVE('',#262,#263,#120,.T.);
#324=EDGE_CURVE('',#263,#264,#220,.T.);
#325=EDGE_CURVE('',#259,#264,#121,.T.);
#326=EDGE_CURVE('',#265,#265,#221,.T.);
#327=EDGE_CURVE('',#266,#266,#222,.T.);
#328=EDGE_CURVE('',#257,#267,#122,.T.);
#329=EDGE_CURVE('',#267,#268,#123,.T.);
#330=EDGE_CURVE('',#269,#268,#124,.T.);
#331=EDGE_CURVE('',#270,#269,#223,.T.);
#332=EDGE_CURVE('',#271,#270,#125,.T.);
#333=EDGE_CURVE('',#261,#271,#126,.T.);
#334=EDGE_CURVE('',#272,#273,#224,.T.);
#335=EDGE_CURVE('',#272,#274,#127,.T.);
#336=EDGE_CURVE('',#274,#275,#225,.T.);
#337=EDGE_CURVE('',#275,#273,#128,.T.);
#338=EDGE_CURVE('',#254,#273,#129,.T.);
#339=EDGE_CURVE('',#275,#276,#130,.T.);
#340=EDGE_CURVE('',#276,#277,#226,.T.);
#341=EDGE_CURVE('',#277,#278,#131,.T.);
#342=EDGE_CURVE('',#278,#271,#227,.T.);
#343=EDGE_CURVE('',#279,#270,#132,.T.);
#344=EDGE_CURVE('',#279,#255,#133,.T.);
#345=EDGE_CURVE('',#256,#280,#134,.T.);
#346=EDGE_CURVE('',#281,#280,#135,.T.);
#347=EDGE_CURVE('',#281,#253,#136,.T.);
#348=EDGE_CURVE('',#282,#282,#228,.T.);
#349=EDGE_CURVE('',#283,#283,#229,.T.);
#350=EDGE_CURVE('',#284,#280,#230,.T.);
#351=EDGE_CURVE('',#284,#285,#137,.T.);
#352=EDGE_CURVE('',#281,#285,#231,.T.);
#353=EDGE_CURVE('',#250,#285,#138,.T.);
#354=EDGE_CURVE('',#244,#286,#139,.T.);
#355=EDGE_CURVE('',#269,#286,#140,.T.);
#356=EDGE_CURVE('',#268,#287,#232,.T.);
#357=EDGE_CURVE('',#287,#288,#141,.T.);
#358=EDGE_CURVE('',#288,#289,#233,.T.);
#359=EDGE_CURVE('',#289,#274,#142,.T.);
#360=EDGE_CURVE('',#272,#247,#143,.T.);
#361=EDGE_CURVE('',#284,#241,#144,.T.);
#362=EDGE_CURVE('',#290,#290,#234,.T.);
#363=EDGE_CURVE('',#291,#291,#235,.T.);
#364=EDGE_CURVE('',#279,#286,#236,.T.);
#365=EDGE_CURVE('',#283,#266,#145,.T.);
#366=EDGE_CURVE('',#282,#265,#146,.T.);
#367=EDGE_CURVE('',#262,#278,#147,.T.);
#368=EDGE_CURVE('',#263,#277,#148,.T.);
#369=EDGE_CURVE('',#264,#276,#149,.T.);
#370=EDGE_CURVE('',#291,#292,#150,.T.);
#371=EDGE_CURVE('',#292,#292,#237,.T.);
#372=EDGE_CURVE('',#290,#293,#151,.T.);
#373=EDGE_CURVE('',#293,#293,#238,.T.);
#374=EDGE_CURVE('',#294,#289,#152,.T.);
#375=EDGE_CURVE('',#294,#260,#153,.T.);
#376=EDGE_CURVE('',#295,#294,#239,.T.);
#377=EDGE_CURVE('',#295,#288,#154,.T.);
#378=EDGE_CURVE('',#296,#295,#155,.T.);
#379=EDGE_CURVE('',#296,#287,#156,.T.);
#380=EDGE_CURVE('',#267,#296,#240,.T.);
#381=ORIENTED_EDGE('',*,*,#297,.T.);
#382=ORIENTED_EDGE('',*,*,#298,.T.);
#383=ORIENTED_EDGE('',*,*,#299,.T.);
#384=ORIENTED_EDGE('',*,*,#300,.T.);
#385=ORIENTED_EDGE('',*,*,#298,.F.);
#386=ORIENTED_EDGE('',*,*,#301,.F.);
#387=ORIENTED_EDGE('',*,*,#302,.F.);
#388=ORIENTED_EDGE('',*,*,#303,.T.);
#389=ORIENTED_EDGE('',*,*,#304,.T.);
#390=ORIENTED_EDGE('',*,*,#305,.T.);
#391=ORIENTED_EDGE('',*,*,#306,.T.);
#392=ORIENTED_EDGE('',*,*,#307,.T.);
#393=ORIENTED_EDGE('',*,*,#305,.F.);
#394=ORIENTED_EDGE('',*,*,#308,.F.);
#395=ORIENTED_EDGE('',*,*,#309,.F.);
#396=ORIENTED_EDGE('',*,*,#310,.F.);
#397=ORIENTED_EDGE('',*,*,#311,.T.);
#398=ORIENTED_EDGE('',*,*,#309,.T.);
#399=ORIENTED_EDGE('',*,*,#312,.T.);
#400=ORIENTED_EDGE('',*,*,#313,.T.);
#401=ORIENTED_EDGE('',*,*,#314,.T.);
#402=ORIENTED_EDGE('',*,*,#302,.T.);
#403=ORIENTED_EDGE('',*,*,#315,.T.);
#404=ORIENTED_EDGE('',*,*,#316,.T.);
#405=ORIENTED_EDGE('',*,*,#317,.T.);
#406=ORIENTED_EDGE('',*,*,#318,.T.);
#407=ORIENTED_EDGE('',*,*,#319,.T.);
#408=ORIENTED_EDGE('',*,*,#320,.T.);
#409=ORIENTED_EDGE('',*,*,#318,.F.);
#410=ORIENTED_EDGE('',*,*,#321,.T.);
#411=ORIENTED_EDGE('',*,*,#322,.T.);
#412=ORIENTED_EDGE('',*,*,#323,.T.);
#413=ORIENTED_EDGE('',*,*,#324,.T.);
#414=ORIENTED_EDGE('',*,*,#325,.F.);
#415=ORIENTED_EDGE('',*,*,#326,.T.);
#416=ORIENTED_EDGE('',*,*,#327,.T.);
#417=ORIENTED_EDGE('',*,*,#317,.F.);
#418=ORIENTED_EDGE('',*,*,#328,.T.);
#419=ORIENTED_EDGE('',*,*,#329,.T.);
#420=ORIENTED_EDGE('',*,*,#330,.F.);
#421=ORIENTED_EDGE('',*,*,#331,.F.);
#422=ORIENTED_EDGE('',*,*,#332,.F.);
#423=ORIENTED_EDGE('',*,*,#333,.F.);
#424=ORIENTED_EDGE('',*,*,#321,.F.);
#425=ORIENTED_EDGE('',*,*,#334,.F.);
#426=ORIENTED_EDGE('',*,*,#335,.T.);
#427=ORIENTED_EDGE('',*,*,#336,.T.);
#428=ORIENTED_EDGE('',*,*,#337,.T.);
#429=ORIENTED_EDGE('',*,*,#338,.T.);
#430=ORIENTED_EDGE('',*,*,#337,.F.);
#431=ORIENTED_EDGE('',*,*,#339,.T.);
#432=ORIENTED_EDGE('',*,*,#340,.T.);
#433=ORIENTED_EDGE('',*,*,#341,.T.);
#434=ORIENTED_EDGE('',*,*,#342,.T.);
#435=ORIENTED_EDGE('',*,*,#332,.T.);
#436=ORIENTED_EDGE('',*,*,#343,.F.);
#437=ORIENTED_EDGE('',*,*,#344,.T.);
#438=ORIENTED_EDGE('',*,*,#316,.F.);
#439=ORIENTED_EDGE('',*,*,#345,.T.);
#440=ORIENTED_EDGE('',*,*,#346,.F.);
#441=ORIENTED_EDGE('',*,*,#347,.T.);
#442=ORIENTED_EDGE('',*,*,#313,.F.);
#443=ORIENTED_EDGE('',*,*,#348,.T.);
#444=ORIENTED_EDGE('',*,*,#349,.T.);
#445=ORIENTED_EDGE('',*,*,#350,.F.);
#446=ORIENTED_EDGE('',*,*,#351,.T.);
#447=ORIENTED_EDGE('',*,*,#352,.F.);
#448=ORIENTED_EDGE('',*,*,#346,.T.);
#449=ORIENTED_EDGE('',*,*,#352,.T.);
#450=ORIENTED_EDGE('',*,*,#353,.F.);
#451=ORIENTED_EDGE('',*,*,#306,.F.);
#452=ORIENTED_EDGE('',*,*,#310,.T.);
#453=ORIENTED_EDGE('',*,*,#311,.F.);
#454=ORIENTED_EDGE('',*,*,#347,.F.);
#455=ORIENTED_EDGE('',*,*,#354,.T.);
#456=ORIENTED_EDGE('',*,*,#355,.F.);
#457=ORIENTED_EDGE('',*,*,#330,.T.);
#458=ORIENTED_EDGE('',*,*,#356,.T.);
#459=ORIENTED_EDGE('',*,*,#357,.T.);
#460=ORIENTED_EDGE('',*,*,#358,.T.);
#461=ORIENTED_EDGE('',*,*,#359,.T.);
#462=ORIENTED_EDGE('',*,*,#335,.F.);
#463=ORIENTED_EDGE('',*,*,#360,.T.);
#464=ORIENTED_EDGE('',*,*,#307,.F.);
#465=ORIENTED_EDGE('',*,*,#353,.T.);
#466=ORIENTED_EDGE('',*,*,#351,.F.);
#467=ORIENTED_EDGE('',*,*,#361,.T.);
#468=ORIENTED_EDGE('',*,*,#300,.F.);
#469=ORIENTED_EDGE('',*,*,#362,.T.);
#470=ORIENTED_EDGE('',*,*,#363,.T.);
#471=ORIENTED_EDGE('',*,*,#364,.F.);
#472=ORIENTED_EDGE('',*,*,#343,.T.);
#473=ORIENTED_EDGE('',*,*,#331,.T.);
#474=ORIENTED_EDGE('',*,*,#355,.T.);
#475=ORIENTED_EDGE('',*,*,#364,.T.);
#476=ORIENTED_EDGE('',*,*,#354,.F.);
#477=ORIENTED_EDGE('',*,*,#299,.F.);
#478=ORIENTED_EDGE('',*,*,#303,.F.);
#479=ORIENTED_EDGE('',*,*,#314,.F.);
#480=ORIENTED_EDGE('',*,*,#344,.F.);
#481=ORIENTED_EDGE('',*,*,#334,.T.);
#482=ORIENTED_EDGE('',*,*,#338,.F.);
#483=ORIENTED_EDGE('',*,*,#312,.F.);
#484=ORIENTED_EDGE('',*,*,#308,.T.);
#485=ORIENTED_EDGE('',*,*,#304,.F.);
#486=ORIENTED_EDGE('',*,*,#360,.F.);
#487=ORIENTED_EDGE('',*,*,#350,.T.);
#488=ORIENTED_EDGE('',*,*,#345,.F.);
#489=ORIENTED_EDGE('',*,*,#315,.F.);
#490=ORIENTED_EDGE('',*,*,#301,.T.);
#491=ORIENTED_EDGE('',*,*,#297,.F.);
#492=ORIENTED_EDGE('',*,*,#361,.F.);
#493=ORIENTED_EDGE('',*,*,#349,.F.);
#494=ORIENTED_EDGE('',*,*,#365,.T.);
#495=ORIENTED_EDGE('',*,*,#327,.F.);
#496=ORIENTED_EDGE('',*,*,#365,.F.);
#497=ORIENTED_EDGE('',*,*,#348,.F.);
#498=ORIENTED_EDGE('',*,*,#366,.T.);
#499=ORIENTED_EDGE('',*,*,#326,.F.);
#500=ORIENTED_EDGE('',*,*,#366,.F.);
#501=ORIENTED_EDGE('',*,*,#322,.F.);
#502=ORIENTED_EDGE('',*,*,#333,.T.);
#503=ORIENTED_EDGE('',*,*,#342,.F.);
#504=ORIENTED_EDGE('',*,*,#367,.F.);
#505=ORIENTED_EDGE('',*,*,#323,.F.);
#506=ORIENTED_EDGE('',*,*,#367,.T.);
#507=ORIENTED_EDGE('',*,*,#341,.F.);
#508=ORIENTED_EDGE('',*,*,#368,.F.);
#509=ORIENTED_EDGE('',*,*,#324,.F.);
#510=ORIENTED_EDGE('',*,*,#368,.T.);
#511=ORIENTED_EDGE('',*,*,#340,.F.);
#512=ORIENTED_EDGE('',*,*,#369,.F.);
#513=ORIENTED_EDGE('',*,*,#363,.F.);
#514=ORIENTED_EDGE('',*,*,#370,.T.);
#515=ORIENTED_EDGE('',*,*,#371,.T.);
#516=ORIENTED_EDGE('',*,*,#370,.F.);
#517=ORIENTED_EDGE('',*,*,#362,.F.);
#518=ORIENTED_EDGE('',*,*,#372,.T.);
#519=ORIENTED_EDGE('',*,*,#373,.T.);
#520=ORIENTED_EDGE('',*,*,#372,.F.);
#521=ORIENTED_EDGE('',*,*,#319,.F.);
#522=ORIENTED_EDGE('',*,*,#325,.T.);
#523=ORIENTED_EDGE('',*,*,#369,.T.);
#524=ORIENTED_EDGE('',*,*,#339,.F.);
#525=ORIENTED_EDGE('',*,*,#336,.F.);
#526=ORIENTED_EDGE('',*,*,#359,.F.);
#527=ORIENTED_EDGE('',*,*,#374,.F.);
#528=ORIENTED_EDGE('',*,*,#375,.T.);
#529=ORIENTED_EDGE('',*,*,#376,.T.);
#530=ORIENTED_EDGE('',*,*,#374,.T.);
#531=ORIENTED_EDGE('',*,*,#358,.F.);
#532=ORIENTED_EDGE('',*,*,#377,.F.);
#533=ORIENTED_EDGE('',*,*,#378,.T.);
#534=ORIENTED_EDGE('',*,*,#377,.T.);
#535=ORIENTED_EDGE('',*,*,#357,.F.);
#536=ORIENTED_EDGE('',*,*,#379,.F.);
#537=ORIENTED_EDGE('',*,*,#380,.T.);
#538=ORIENTED_EDGE('',*,*,#379,.T.);
#539=ORIENTED_EDGE('',*,*,#356,.F.);
#540=ORIENTED_EDGE('',*,*,#329,.F.);
#541=ORIENTED_EDGE('',*,*,#320,.F.);
#542=ORIENTED_EDGE('',*,*,#375,.F.);
#543=ORIENTED_EDGE('',*,*,#376,.F.);
#544=ORIENTED_EDGE('',*,*,#378,.F.);
#545=ORIENTED_EDGE('',*,*,#380,.F.);
#546=ORIENTED_EDGE('',*,*,#328,.F.);
#547=ORIENTED_EDGE('',*,*,#373,.F.);
#548=ORIENTED_EDGE('',*,*,#371,.F.);
#549=CYLINDRICAL_SURFACE('',#609,5.);
#550=CYLINDRICAL_SURFACE('',#613,5.);
#551=CYLINDRICAL_SURFACE('',#617,5.);
#552=CYLINDRICAL_SURFACE('',#620,5.);
#553=CYLINDRICAL_SURFACE('',#623,5.);
#554=CYLINDRICAL_SURFACE('',#633,5.);
#555=CYLINDRICAL_SURFACE('',#641,5.);
#556=CYLINDRICAL_SURFACE('',#650,5.);
#557=CYLINDRICAL_SURFACE('',#655,5.);
#558=CYLINDRICAL_SURFACE('',#656,5.);
#559=CYLINDRICAL_SURFACE('',#657,9.99999999999998);
#560=CYLINDRICAL_SURFACE('',#659,9.99999999999998);
#561=CYLINDRICAL_SURFACE('',#660,5.);
#562=CYLINDRICAL_SURFACE('',#662,5.);
#563=CYLINDRICAL_SURFACE('',#665,9.99999999999998);
#564=CYLINDRICAL_SURFACE('',#668,9.99999999999999);
#565=ADVANCED_FACE('',(#37),#549,.F.);
#566=ADVANCED_FACE('',(#38),#23,.T.);
#567=ADVANCED_FACE('',(#39),#550,.F.);
#568=ADVANCED_FACE('',(#40),#24,.T.);
#569=ADVANCED_FACE('',(#41),#551,.F.);
#570=ADVANCED_FACE('',(#42),#552,.F.);
#571=ADVANCED_FACE('',(#43),#553,.T.);
#572=ADVANCED_FACE('',(#44,#15,#16),#25,.T.);
#573=ADVANCED_FACE('',(#45),#26,.T.);
#574=ADVANCED_FACE('',(#46),#554,.F.);
#575=ADVANCED_FACE('',(#47,#17,#18),#27,.F.);
#576=ADVANCED_FACE('',(#48),#555,.F.);
#577=ADVANCED_FACE('',(#49),#28,.F.);
#578=ADVANCED_FACE('',(#50,#19,#20),#29,.T.);
#579=ADVANCED_FACE('',(#51),#556,.F.);
#580=ADVANCED_FACE('',(#52),#30,.F.);
#581=ADVANCED_FACE('',(#53),#31,.T.);
#582=ADVANCED_FACE('',(#54),#32,.T.);
#583=ADVANCED_FACE('',(#55),#557,.F.);
#584=ADVANCED_FACE('',(#56),#558,.F.);
#585=ADVANCED_FACE('',(#57),#559,.T.);
#586=ADVANCED_FACE('',(#58),#33,.T.);
#587=ADVANCED_FACE('',(#59),#560,.T.);
#588=ADVANCED_FACE('',(#60),#561,.F.);
#589=ADVANCED_FACE('',(#61),#562,.F.);
#590=ADVANCED_FACE('',(#62),#34,.T.);
#591=ADVANCED_FACE('',(#63),#563,.T.);
#592=ADVANCED_FACE('',(#64),#35,.T.);
#593=ADVANCED_FACE('',(#65),#564,.T.);
#594=ADVANCED_FACE('',(#66,#21,#22),#36,.F.);
#595=CLOSED_SHELL('',(#565,#566,#567,#568,#569,#570,#571,#572,#573,#574,
#575,#576,#577,#578,#579,#580,#581,#582,#583,#584,#585,#586,#587,#588,#589,
#590,#591,#592,#593,#594));
#596=DERIVED_UNIT_ELEMENT(#598,1.);
#597=DERIVED_UNIT_ELEMENT(#1025,3.);
#598=(
MASS_UNIT()
NAMED_UNIT(*)
SI_UNIT(.KILO.,.GRAM.)
);
#599=DERIVED_UNIT((#596,#597));
#600=MEASURE_REPRESENTATION_ITEM('density measure',
POSITIVE_RATIO_MEASURE(7850.),#599);
#601=PROPERTY_DEFINITION_REPRESENTATION(#606,#603);
#602=PROPERTY_DEFINITION_REPRESENTATION(#607,#604);
#603=REPRESENTATION('material name',(#605),#1022);
#604=REPRESENTATION('density',(#600),#1022);
#605=DESCRIPTIVE_REPRESENTATION_ITEM('Steel','Steel');
#606=PROPERTY_DEFINITION('material property','material name',#1032);
#607=PROPERTY_DEFINITION('material property','density of part',#1032);
#608=AXIS2_PLACEMENT_3D('placement',#849,#671,#672);
#609=AXIS2_PLACEMENT_3D('',#850,#673,#674);
#610=AXIS2_PLACEMENT_3D('',#853,#675,#676);
#611=AXIS2_PLACEMENT_3D('',#857,#678,#679);
#612=AXIS2_PLACEMENT_3D('',#859,#681,#682);
#613=AXIS2_PLACEMENT_3D('',#865,#686,#687);
#614=AXIS2_PLACEMENT_3D('',#868,#688,#689);
#615=AXIS2_PLACEMENT_3D('',#872,#691,#692);
#616=AXIS2_PLACEMENT_3D('',#874,#694,#695);
#617=AXIS2_PLACEMENT_3D('',#880,#699,#700);
#618=AXIS2_PLACEMENT_3D('',#882,#701,#702);
#619=AXIS2_PLACEMENT_3D('',#884,#703,#704);
#620=AXIS2_PLACEMENT_3D('',#886,#706,#707);
#621=AXIS2_PLACEMENT_3D('',#888,#708,#709);
#622=AXIS2_PLACEMENT_3D('',#890,#710,#711);
#623=AXIS2_PLACEMENT_3D('',#892,#713,#714);
#624=AXIS2_PLACEMENT_3D('',#895,#715,#716);
#625=AXIS2_PLACEMENT_3D('',#899,#718,#719);
#626=AXIS2_PLACEMENT_3D('',#901,#721,#722);
#627=AXIS2_PLACEMENT_3D('',#905,#724,#725);
#628=AXIS2_PLACEMENT_3D('',#909,#727,#728);
#629=AXIS2_PLACEMENT_3D('',#912,#730,#731);
#630=AXIS2_PLACEMENT_3D('',#914,#732,#733);
#631=AXIS2_PLACEMENT_3D('',#915,#734,#735);
#632=AXIS2_PLACEMENT_3D('',#923,#739,#740);
#633=AXIS2_PLACEMENT_3D('',#927,#743,#744);
#634=AXIS2_PLACEMENT_3D('',#930,#745,#746);
#635=AXIS2_PLACEMENT_3D('',#934,#748,#749);
#636=AXIS2_PLACEMENT_3D('',#936,#751,#752);
#637=AXIS2_PLACEMENT_3D('',#941,#755,#756);
#638=AXIS2_PLACEMENT_3D('',#944,#758,#759);
#639=AXIS2_PLACEMENT_3D('',#954,#765,#766);
#640=AXIS2_PLACEMENT_3D('',#956,#767,#768);
#641=AXIS2_PLACEMENT_3D('',#957,#769,#770);
#642=AXIS2_PLACEMENT_3D('',#959,#771,#772);
#643=AXIS2_PLACEMENT_3D('',#962,#774,#775);
#644=AXIS2_PLACEMENT_3D('',#963,#776,#777);
#645=AXIS2_PLACEMENT_3D('',#965,#779,#780);
#646=AXIS2_PLACEMENT_3D('',#970,#783,#784);
#647=AXIS2_PLACEMENT_3D('',#974,#786,#787);
#648=AXIS2_PLACEMENT_3D('',#979,#791,#792);
#649=AXIS2_PLACEMENT_3D('',#981,#793,#794);
#650=AXIS2_PLACEMENT_3D('',#982,#795,#796);
#651=AXIS2_PLACEMENT_3D('',#983,#797,#798);
#652=AXIS2_PLACEMENT_3D('',#984,#799,#800);
#653=AXIS2_PLACEMENT_3D('',#985,#801,#802);
#654=AXIS2_PLACEMENT_3D('',#986,#803,#804);
#655=AXIS2_PLACEMENT_3D('',#987,#805,#806);
#656=AXIS2_PLACEMENT_3D('',#989,#808,#809);
#657=AXIS2_PLACEMENT_3D('',#991,#811,#812);
#658=AXIS2_PLACEMENT_3D('',#993,#814,#815);
#659=AXIS2_PLACEMENT_3D('',#995,#817,#818);
#660=AXIS2_PLACEMENT_3D('',#997,#820,#821);
#661=AXIS2_PLACEMENT_3D('',#1000,#823,#824);
#662=AXIS2_PLACEMENT_3D('',#1001,#825,#826);
#663=AXIS2_PLACEMENT_3D('',#1004,#828,#829);
#664=AXIS2_PLACEMENT_3D('',#1005,#830,#831);
#665=AXIS2_PLACEMENT_3D('',#1009,#834,#835);
#666=AXIS2_PLACEMENT_3D('',#1011,#836,#837);
#667=AXIS2_PLACEMENT_3D('',#1013,#839,#840);
#668=AXIS2_PLACEMENT_3D('',#1017,#843,#844);
#669=AXIS2_PLACEMENT_3D('',#1018,#845,#846);
#670=AXIS2_PLACEMENT_3D('',#1019,#847,#848);
#671=DIRECTION('axis',(0.,0.,1.));
#672=DIRECTION('refdir',(1.,0.,0.));
#673=DIRECTION('center_axis',(0.,-1.,0.));
#674=DIRECTION('ref_axis',(-0.38268343236509,0.,-0.923879532511287));
#675=DIRECTION('center_axis',(0.,1.,0.));
#676=DIRECTION('ref_axis',(-0.38268343236509,0.,-0.923879532511287));
#677=DIRECTION('',(0.,-1.,0.));
#678=DIRECTION('center_axis',(0.,-1.,0.));
#679=DIRECTION('ref_axis',(-0.38268343236509,0.,-0.923879532511287));
#680=DIRECTION('',(0.,1.,0.));
#681=DIRECTION('center_axis',(0.707106781186547,0.,0.707106781186548));
#682=DIRECTION('ref_axis',(0.707106781186548,0.,-0.707106781186547));
#683=DIRECTION('',(0.707106781186548,0.,-0.707106781186547));
#684=DIRECTION('',(0.,1.,0.));
#685=DIRECTION('',(0.707106781186548,0.,-0.707106781186547));
#686=DIRECTION('center_axis',(0.,-1.,0.));
#687=DIRECTION('ref_axis',(-0.38268343236509,0.,-0.923879532511287));
#688=DIRECTION('center_axis',(0.,1.,0.));
#689=DIRECTION('ref_axis',(-0.38268343236509,0.,-0.923879532511287));
#690=DIRECTION('',(0.,-1.,0.));
#691=DIRECTION('center_axis',(0.,-1.,0.));
#692=DIRECTION('ref_axis',(-0.38268343236509,0.,-0.923879532511287));
#693=DIRECTION('',(0.,1.,0.));
#694=DIRECTION('center_axis',(0.707106781186547,0.,0.707106781186548));
#695=DIRECTION('ref_axis',(0.707106781186548,0.,-0.707106781186547));
#696=DIRECTION('',(0.707106781186548,0.,-0.707106781186547));
#697=DIRECTION('',(0.,1.,0.));
#698=DIRECTION('',(-0.707106781186548,0.,0.707106781186547));
#699=DIRECTION('center_axis',(0.,1.,0.));
#700=DIRECTION('ref_axis',(-0.923879532511287,0.,-0.38268343236509));
#701=DIRECTION('center_axis',(0.,-1.,0.));
#702=DIRECTION('ref_axis',(-0.923879532511287,0.,-0.38268343236509));
#703=DIRECTION('center_axis',(0.,1.,0.));
#704=DIRECTION('ref_axis',(-0.923879532511287,0.,-0.38268343236509));
#705=DIRECTION('',(0.,-1.,0.));
#706=DIRECTION('center_axis',(0.,1.,0.));
#707=DIRECTION('ref_axis',(-0.923879532511287,0.,-0.38268343236509));
#708=DIRECTION('center_axis',(0.,-1.,0.));
#709=DIRECTION('ref_axis',(-0.923879532511287,0.,-0.38268343236509));
#710=DIRECTION('center_axis',(0.,1.,0.));
#711=DIRECTION('ref_axis',(-0.923879532511287,0.,-0.38268343236509));
#712=DIRECTION('',(0.,-1.,0.));
#713=DIRECTION('center_axis',(0.,-1.,0.));
#714=DIRECTION('ref_axis',(-0.707106781186547,0.,-0.707106781186547));
#715=DIRECTION('center_axis',(0.,1.,0.));
#716=DIRECTION('ref_axis',(-0.707106781186547,0.,-0.707106781186547));
#717=DIRECTION('',(0.,1.,0.));
#718=DIRECTION('center_axis',(0.,-1.,0.));
#719=DIRECTION('ref_axis',(-0.707106781186547,0.,-0.707106781186547));
#720=DIRECTION('',(0.,-1.,0.));
#721=DIRECTION('center_axis',(-1.,0.,0.));
#722=DIRECTION('ref_axis',(0.,-1.,0.));
#723=DIRECTION('',(0.,0.,1.));
#724=DIRECTION('center_axis',(-1.,0.,0.));
#725=DIRECTION('ref_axis',(0.,-1.,-8.88178419700127E-16));
#726=DIRECTION('',(0.,1.,-2.96059473233375E-16));
#727=DIRECTION('center_axis',(-1.,0.,0.));
#728=DIRECTION('ref_axis',(0.,-1.77635683940025E-15,1.));
#729=DIRECTION('',(0.,0.,1.));
#730=DIRECTION('center_axis',(1.,0.,0.));
#731=DIRECTION('ref_axis',(0.,-1.,0.));
#732=DIRECTION('center_axis',(1.,0.,0.));
#733=DIRECTION('ref_axis',(0.,-1.,0.));
#734=DIRECTION('center_axis',(0.,-1.,0.));
#735=DIRECTION('ref_axis',(1.,0.,0.));
#736=DIRECTION('',(1.,0.,0.));
#737=DIRECTION('',(0.,0.,1.));
#738=DIRECTION('',(1.,0.,0.));
#739=DIRECTION('center_axis',(0.,-1.,0.));
#740=DIRECTION('ref_axis',(-0.707106781186548,0.,-0.707106781186547));
#741=DIRECTION('',(0.,-2.73285667600038E-16,-1.));
#742=DIRECTION('',(1.,0.,0.));
#743=DIRECTION('center_axis',(0.,-1.,0.));
#744=DIRECTION('ref_axis',(-0.707106781186548,0.,-0.707106781186547));
#745=DIRECTION('center_axis',(0.,1.,0.));
#746=DIRECTION('ref_axis',(-0.707106781186548,0.,-0.707106781186547));
#747=DIRECTION('',(0.,1.,0.));
#748=DIRECTION('center_axis',(0.,1.,0.));
#749=DIRECTION('ref_axis',(-0.707106781186548,0.,-0.707106781186547));
#750=DIRECTION('',(0.,-1.,0.));
#751=DIRECTION('center_axis',(-1.,0.,0.));
#752=DIRECTION('ref_axis',(0.,-1.,0.));
#753=DIRECTION('',(0.,0.,-1.));
#754=DIRECTION('',(0.,2.73285667600038E-16,1.));
#755=DIRECTION('center_axis',(1.,0.,0.));
#756=DIRECTION('ref_axis',(0.,-1.77635683940025E-15,1.));
#757=DIRECTION('',(0.,-1.,2.96059473233375E-16));
#758=DIRECTION('center_axis',(1.,0.,0.));
#759=DIRECTION('ref_axis',(0.,-1.,-8.88178419700127E-16));
#760=DIRECTION('',(0.,-1.,0.));
#761=DIRECTION('',(0.,0.,1.));
#762=DIRECTION('',(0.,0.,-1.));
#763=DIRECTION('',(0.,-1.,0.));
#764=DIRECTION('',(0.,0.,1.));
#765=DIRECTION('center_axis',(-1.,0.,0.));
#766=DIRECTION('ref_axis',(0.,-1.,0.));
#767=DIRECTION('center_axis',(-1.,0.,0.));
#768=DIRECTION('ref_axis',(0.,-1.,0.));
#769=DIRECTION('center_axis',(0.,-1.,0.));
#770=DIRECTION('ref_axis',(-0.707106781186548,0.,-0.707106781186547));
#771=DIRECTION('center_axis',(0.,1.,0.));
#772=DIRECTION('ref_axis',(-0.707106781186548,0.,-0.707106781186547));
#773=DIRECTION('',(0.,1.,0.));
#774=DIRECTION('center_axis',(0.,-1.,0.));
#775=DIRECTION('ref_axis',(-0.707106781186548,0.,-0.707106781186547));
#776=DIRECTION('center_axis',(0.,1.,0.));
#777=DIRECTION('ref_axis',(1.,0.,0.));
#778=DIRECTION('',(-1.,0.,0.));
#779=DIRECTION('center_axis',(0.,0.,1.));
#780=DIRECTION('ref_axis',(1.,0.,0.));
#781=DIRECTION('',(-1.,0.,0.));
#782=DIRECTION('',(0.,1.,0.));
#783=DIRECTION('center_axis',(0.,0.,1.));
#784=DIRECTION('ref_axis',(-8.88178419700126E-16,-1.,0.));
#785=DIRECTION('',(0.,1.,0.));
#786=DIRECTION('center_axis',(0.,0.,1.));
#787=DIRECTION('ref_axis',(1.,-1.77635683940025E-15,0.));
#788=DIRECTION('',(-1.,0.,0.));
#789=DIRECTION('',(1.,0.,0.));
#790=DIRECTION('',(1.,0.,0.));
#791=DIRECTION('center_axis',(0.,0.,-1.));
#792=DIRECTION('ref_axis',(1.,0.,0.));
#793=DIRECTION('center_axis',(0.,0.,-1.));
#794=DIRECTION('ref_axis',(1.,0.,0.));
#795=DIRECTION('center_axis',(0.,-1.,0.));
#796=DIRECTION('ref_axis',(-0.707106781186548,0.,-0.707106781186547));
#797=DIRECTION('center_axis',(0.,-1.,0.));
#798=DIRECTION('ref_axis',(-0.707106781186548,0.,-0.707106781186547));
#799=DIRECTION('center_axis',(0.,1.,0.));
#800=DIRECTION('ref_axis',(1.,0.,0.));
#801=DIRECTION('center_axis',(0.,1.,0.));
#802=DIRECTION('ref_axis',(0.,0.,1.));
#803=DIRECTION('center_axis',(0.,1.,0.));
#804=DIRECTION('ref_axis',(0.,0.,1.));
#805=DIRECTION('center_axis',(1.,0.,0.));
#806=DIRECTION('ref_axis',(0.,-1.,0.));
#807=DIRECTION('',(-1.,0.,0.));
#808=DIRECTION('center_axis',(1.,0.,0.));
#809=DIRECTION('ref_axis',(0.,-1.,0.));
#810=DIRECTION('',(-1.,0.,0.));
#811=DIRECTION('center_axis',(1.,0.,0.));
#812=DIRECTION('ref_axis',(0.,-1.,-8.88178419700127E-16));
#813=DIRECTION('',(1.,0.,0.));
#814=DIRECTION('center_axis',(0.,2.96059473233375E-16,1.));
#815=DIRECTION('ref_axis',(0.,-1.,2.96059473233375E-16));
#816=DIRECTION('',(1.,0.,0.));
#817=DIRECTION('center_axis',(1.,0.,0.));
#818=DIRECTION('ref_axis',(0.,-1.77635683940025E-15,1.));
#819=DIRECTION('',(1.,0.,0.));
#820=DIRECTION('center_axis',(0.,0.,1.));
#821=DIRECTION('ref_axis',(1.,0.,0.));
#822=DIRECTION('',(0.,0.,-1.));
#823=DIRECTION('center_axis',(0.,0.,-1.));
#824=DIRECTION('ref_axis',(1.,0.,0.));
#825=DIRECTION('center_axis',(0.,0.,1.));
#826=DIRECTION('ref_axis',(1.,0.,0.));
#827=DIRECTION('',(0.,0.,-1.));
#828=DIRECTION('center_axis',(0.,0.,-1.));
#829=DIRECTION('ref_axis',(1.,0.,0.));
#830=DIRECTION('center_axis',(0.,1.,0.));
#831=DIRECTION('ref_axis',(-1.,0.,0.));
#832=DIRECTION('',(0.,0.,1.));
#833=DIRECTION('',(-1.,0.,0.));
#834=DIRECTION('center_axis',(0.,0.,1.));
#835=DIRECTION('ref_axis',(1.,-1.77635683940025E-15,0.));
#836=DIRECTION('center_axis',(0.,0.,1.));
#837=DIRECTION('ref_axis',(1.,-1.77635683940025E-15,0.));
#838=DIRECTION('',(0.,0.,1.));
#839=DIRECTION('center_axis',(1.,0.,0.));
#840=DIRECTION('ref_axis',(0.,1.,0.));
#841=DIRECTION('',(0.,1.,0.));
#842=DIRECTION('',(0.,0.,1.));
#843=DIRECTION('center_axis',(0.,0.,1.));
#844=DIRECTION('ref_axis',(-8.88178419700126E-16,-1.,0.));
#845=DIRECTION('center_axis',(0.,0.,1.));
#846=DIRECTION('ref_axis',(-8.88178419700126E-16,-1.,0.));
#847=DIRECTION('center_axis',(0.,0.,1.));
#848=DIRECTION('ref_axis',(1.,0.,0.));
#849=CARTESIAN_POINT('',(0.,0.,0.));
#850=CARTESIAN_POINT('Origin',(37.0710678118655,17.5,10.));
#851=CARTESIAN_POINT('',(37.0710678118655,15.,5.));
#852=CARTESIAN_POINT('',(33.5355339059327,15.,6.46446609406726));
#853=CARTESIAN_POINT('Origin',(37.0710678118655,15.,10.));
#854=CARTESIAN_POINT('',(33.5355339059327,10.,6.46446609406726));
#855=CARTESIAN_POINT('',(33.5355339059327,17.5,6.46446609406726));
#856=CARTESIAN_POINT('',(37.0710678118655,10.,5.));
#857=CARTESIAN_POINT('Origin',(37.0710678118655,10.,10.));
#858=CARTESIAN_POINT('',(37.0710678118655,17.5,5.));
#859=CARTESIAN_POINT('Origin',(5.,10.,35.));
#860=CARTESIAN_POINT('',(6.46446609406726,15.,33.5355339059327));
#861=CARTESIAN_POINT('',(5.,15.,35.));
#862=CARTESIAN_POINT('',(6.46446609406726,10.,33.5355339059327));
#863=CARTESIAN_POINT('',(6.46446609406726,17.5,33.5355339059327));
#864=CARTESIAN_POINT('',(5.,10.,35.));
#865=CARTESIAN_POINT('Origin',(37.0710678118655,30.,10.));
#866=CARTESIAN_POINT('',(37.0710678118655,40.,5.));
#867=CARTESIAN_POINT('',(33.5355339059327,40.,6.46446609406727));
#868=CARTESIAN_POINT('Origin',(37.0710678118655,40.,10.));
#869=CARTESIAN_POINT('',(33.5355339059327,35.,6.46446609406727));
#870=CARTESIAN_POINT('',(33.5355339059327,30.,6.46446609406726));
#871=CARTESIAN_POINT('',(37.0710678118655,35.,5.));
#872=CARTESIAN_POINT('Origin',(37.0710678118655,35.,10.));
#873=CARTESIAN_POINT('',(37.0710678118655,30.,5.));
#874=CARTESIAN_POINT('Origin',(5.,35.,35.));
#875=CARTESIAN_POINT('',(6.46446609406726,40.,33.5355339059327));
#876=CARTESIAN_POINT('',(35.,40.,5.));
#877=CARTESIAN_POINT('',(6.46446609406726,35.,33.5355339059327));
#878=CARTESIAN_POINT('',(6.46446609406726,30.,33.5355339059327));
#879=CARTESIAN_POINT('',(35.,35.,5.));
#880=CARTESIAN_POINT('Origin',(10.,30.,37.0710678118655));
#881=CARTESIAN_POINT('',(5.,35.,37.0710678118655));
#882=CARTESIAN_POINT('Origin',(10.,35.,37.0710678118655));
#883=CARTESIAN_POINT('',(5.,40.,37.0710678118655));
#884=CARTESIAN_POINT('Origin',(10.,40.,37.0710678118655));
#885=CARTESIAN_POINT('',(5.,30.,37.0710678118655));
#886=CARTESIAN_POINT('Origin',(10.,17.5,37.0710678118655));
#887=CARTESIAN_POINT('',(5.,10.,37.0710678118655));
#888=CARTESIAN_POINT('Origin',(10.,10.,37.0710678118655));
#889=CARTESIAN_POINT('',(5.,15.,37.0710678118655));
#890=CARTESIAN_POINT('Origin',(10.,15.,37.0710678118655));
#891=CARTESIAN_POINT('',(5.,17.5,37.0710678118655));
#892=CARTESIAN_POINT('Origin',(5.,37.5,5.));
#893=CARTESIAN_POINT('',(5.,0.,0.));
#894=CARTESIAN_POINT('',(0.,0.,5.));
#895=CARTESIAN_POINT('Origin',(5.,0.,5.));
#896=CARTESIAN_POINT('',(0.,50.,5.));
#897=CARTESIAN_POINT('',(0.,37.5,5.));
#898=CARTESIAN_POINT('',(5.,50.,0.));
#899=CARTESIAN_POINT('Origin',(5.,50.,5.));
#900=CARTESIAN_POINT('',(5.,37.5,0.));
#901=CARTESIAN_POINT('Origin',(0.,50.,0.));
#902=CARTESIAN_POINT('',(0.,0.,65.));
#903=CARTESIAN_POINT('',(0.,0.,0.));
#904=CARTESIAN_POINT('',(0.,10.,75.));
#905=CARTESIAN_POINT('Origin',(0.,9.99999999999998,65.));
#906=CARTESIAN_POINT('',(0.,40.,75.));
#907=CARTESIAN_POINT('',(0.,10.,75.));
#908=CARTESIAN_POINT('',(0.,50.,65.));
#909=CARTESIAN_POINT('Origin',(0.,40.,65.));
#910=CARTESIAN_POINT('',(0.,50.,0.));
#911=CARTESIAN_POINT('',(0.,15.,65.));
#912=CARTESIAN_POINT('Origin',(0.,10.,65.));
#913=CARTESIAN_POINT('',(0.,45.,65.));
#914=CARTESIAN_POINT('Origin',(0.,40.,65.));
#915=CARTESIAN_POINT('Origin',(0.,0.,0.));
#916=CARTESIAN_POINT('',(65.,0.,0.));
#917=CARTESIAN_POINT('',(0.,0.,0.));
#918=CARTESIAN_POINT('',(65.,0.,5.));
#919=CARTESIAN_POINT('',(65.,0.,0.));
#920=CARTESIAN_POINT('',(10.,0.,5.));
#921=CARTESIAN_POINT('',(0.,0.,5.));
#922=CARTESIAN_POINT('',(5.,-1.50307117180021E-14,10.));
#923=CARTESIAN_POINT('Origin',(10.,0.,10.));
#924=CARTESIAN_POINT('',(5.,0.,65.));
#925=CARTESIAN_POINT('',(5.,-1.77635683940025E-14,-4.44089209850063E-14));
#926=CARTESIAN_POINT('',(0.,0.,65.));
#927=CARTESIAN_POINT('Origin',(10.,25.,10.));
#928=CARTESIAN_POINT('',(10.,40.,5.));
#929=CARTESIAN_POINT('',(5.,40.,10.));
#930=CARTESIAN_POINT('Origin',(10.,40.,10.));
#931=CARTESIAN_POINT('',(10.,50.,5.));
#932=CARTESIAN_POINT('',(10.,25.,5.));
#933=CARTESIAN_POINT('',(5.,50.,10.));
#934=CARTESIAN_POINT('Origin',(10.,50.,10.));
#935=CARTESIAN_POINT('',(5.,25.,10.));
#936=CARTESIAN_POINT('Origin',(5.,25.,40.));
#937=CARTESIAN_POINT('',(5.,40.,30.));
#938=CARTESIAN_POINT('',(5.,50.,65.));
#939=CARTESIAN_POINT('',(5.,50.,65.));
#940=CARTESIAN_POINT('',(5.,40.,75.));
#941=CARTESIAN_POINT('Origin',(5.,40.,65.));
#942=CARTESIAN_POINT('',(5.,10.,75.));
#943=CARTESIAN_POINT('',(5.,10.,75.));
#944=CARTESIAN_POINT('Origin',(5.,9.99999999999998,65.));
#945=CARTESIAN_POINT('',(5.,10.,10.));
#946=CARTESIAN_POINT('',(5.,25.,10.));
#947=CARTESIAN_POINT('',(5.,10.,30.));
#948=CARTESIAN_POINT('',(5.,15.,10.));
#949=CARTESIAN_POINT('',(5.,15.,30.));
#950=CARTESIAN_POINT('',(5.,35.,10.));
#951=CARTESIAN_POINT('',(5.,25.,10.));
#952=CARTESIAN_POINT('',(5.,35.,30.));
#953=CARTESIAN_POINT('',(5.,15.,65.));
#954=CARTESIAN_POINT('Origin',(5.,10.,65.));
#955=CARTESIAN_POINT('',(5.,45.,65.));
#956=CARTESIAN_POINT('Origin',(5.,40.,65.));
#957=CARTESIAN_POINT('Origin',(10.,25.,10.));
#958=CARTESIAN_POINT('',(10.,15.,5.));
#959=CARTESIAN_POINT('Origin',(10.,15.,10.));
#960=CARTESIAN_POINT('',(10.,35.,5.));
#961=CARTESIAN_POINT('',(10.,25.,5.));
#962=CARTESIAN_POINT('Origin',(10.,35.,10.));
#963=CARTESIAN_POINT('Origin',(20.,35.,20.));
#964=CARTESIAN_POINT('',(28.75,35.,5.));
#965=CARTESIAN_POINT('Origin',(37.5,25.,5.));
#966=CARTESIAN_POINT('',(10.,10.,5.));
#967=CARTESIAN_POINT('',(28.75,10.,5.));
#968=CARTESIAN_POINT('',(10.,25.,5.));
#969=CARTESIAN_POINT('',(75.,10.,5.));
#970=CARTESIAN_POINT('Origin',(65.,9.99999999999999,5.));
#971=CARTESIAN_POINT('',(75.,40.,5.));
#972=CARTESIAN_POINT('',(75.,10.,5.));
#973=CARTESIAN_POINT('',(65.,50.,5.));
#974=CARTESIAN_POINT('Origin',(65.,40.,5.));
#975=CARTESIAN_POINT('',(65.,50.,5.));
#976=CARTESIAN_POINT('',(28.75,40.,5.));
#977=CARTESIAN_POINT('',(28.75,15.,5.));
#978=CARTESIAN_POINT('',(60.,10.,5.));
#979=CARTESIAN_POINT('Origin',(65.,10.,5.));
#980=CARTESIAN_POINT('',(60.,40.,5.));
#981=CARTESIAN_POINT('Origin',(65.,40.,5.));
#982=CARTESIAN_POINT('Origin',(10.,25.,10.));
#983=CARTESIAN_POINT('Origin',(10.,10.,10.));
#984=CARTESIAN_POINT('Origin',(20.,10.,20.));
#985=CARTESIAN_POINT('Origin',(20.,40.,20.));
#986=CARTESIAN_POINT('Origin',(20.,15.,20.));
#987=CARTESIAN_POINT('Origin',(0.,40.,65.));
#988=CARTESIAN_POINT('',(0.,45.,65.));
#989=CARTESIAN_POINT('Origin',(0.,10.,65.));
#990=CARTESIAN_POINT('',(0.,15.,65.));
#991=CARTESIAN_POINT('Origin',(0.,9.99999999999998,65.));
#992=CARTESIAN_POINT('',(0.,10.,75.));
#993=CARTESIAN_POINT('Origin',(0.,40.,75.));
#994=CARTESIAN_POINT('',(0.,40.,75.));
#995=CARTESIAN_POINT('Origin',(0.,40.,65.));
#996=CARTESIAN_POINT('',(0.,50.,65.));
#997=CARTESIAN_POINT('Origin',(65.,40.,0.));
#998=CARTESIAN_POINT('',(60.,40.,0.));
#999=CARTESIAN_POINT('',(60.,40.,0.));
#1000=CARTESIAN_POINT('Origin',(65.,40.,0.));
#1001=CARTESIAN_POINT('Origin',(65.,10.,0.));
#1002=CARTESIAN_POINT('',(60.,10.,0.));
#1003=CARTESIAN_POINT('',(60.,10.,0.));
#1004=CARTESIAN_POINT('Origin',(65.,10.,0.));
#1005=CARTESIAN_POINT('Origin',(65.,50.,0.));
#1006=CARTESIAN_POINT('',(65.,50.,0.));
#1007=CARTESIAN_POINT('',(65.,50.,0.));
#1008=CARTESIAN_POINT('',(65.,50.,0.));
#1009=CARTESIAN_POINT('Origin',(65.,40.,0.));
#1010=CARTESIAN_POINT('',(75.,40.,0.));
#1011=CARTESIAN_POINT('Origin',(65.,40.,0.));
#1012=CARTESIAN_POINT('',(75.,40.,0.));
#1013=CARTESIAN_POINT('Origin',(75.,10.,0.));
#1014=CARTESIAN_POINT('',(75.,10.,0.));
#1015=CARTESIAN_POINT('',(75.,10.,0.));
#1016=CARTESIAN_POINT('',(75.,10.,0.));
#1017=CARTESIAN_POINT('Origin',(65.,9.99999999999999,0.));
#1018=CARTESIAN_POINT('Origin',(65.,9.99999999999999,0.));
#1019=CARTESIAN_POINT('Origin',(37.5,25.,0.));
#1020=UNCERTAINTY_MEASURE_WITH_UNIT(LENGTH_MEASURE(0.01),#1024,
'DISTANCE_ACCURACY_VALUE',
'Maximum model space distance between geometric entities at asserted c
onnectivities');
#1021=UNCERTAINTY_MEASURE_WITH_UNIT(LENGTH_MEASURE(0.01),#1024,
'DISTANCE_ACCURACY_VALUE',
'Maximum model space distance between geometric entities at asserted c
onnectivities');
#1022=(
GEOMETRIC_REPRESENTATION_CONTEXT(3)
GLOBAL_UNCERTAINTY_ASSIGNED_CONTEXT((#1020))
GLOBAL_UNIT_ASSIGNED_CONTEXT((#1024,#1026,#1027))
REPRESENTATION_CONTEXT('','3D')
);
#1023=(
GEOMETRIC_REPRESENTATION_CONTEXT(3)
GLOBAL_UNCERTAINTY_ASSIGNED_CONTEXT((#1021))
GLOBAL_UNIT_ASSIGNED_CONTEXT((#1024,#1026,#1027))
REPRESENTATION_CONTEXT('','3D')
);
#1024=(
LENGTH_UNIT()
NAMED_UNIT(*)
SI_UNIT(.MILLI.,.METRE.)
);
#1025=(
LENGTH_UNIT()
NAMED_UNIT(*)
SI_UNIT($,.METRE.)
);
#1026=(
NAMED_UNIT(*)
PLANE_ANGLE_UNIT()
SI_UNIT($,.RADIAN.)
);
#1027=(
NAMED_UNIT(*)
SI_UNIT($,.STERADIAN.)
SOLID_ANGLE_UNIT()
);
#1028=SHAPE_DEFINITION_REPRESENTATION(#1029,#1030);
#1029=PRODUCT_DEFINITION_SHAPE('',$,#1032);
#1030=SHAPE_REPRESENTATION('',(#608),#1022);
#1031=PRODUCT_DEFINITION_CONTEXT('part definition',#1036,'design');
#1032=PRODUCT_DEFINITION('Sketch','Sketch v2',#1033,#1031);
#1033=PRODUCT_DEFINITION_FORMATION('',$,#1038);
#1034=PRODUCT_RELATED_PRODUCT_CATEGORY('Sketch v2','Sketch v2',(#1038));
#1035=APPLICATION_PROTOCOL_DEFINITION('international standard',
'automotive_design',2009,#1036);
#1036=APPLICATION_CONTEXT(
'Core Data for Automotive Mechanical Design Process');
#1037=PRODUCT_CONTEXT('part definition',#1036,'mechanical');
#1038=PRODUCT('Sketch','Sketch v2',$,(#1037));
#1039=PRESENTATION_STYLE_ASSIGNMENT((#1040));
#1040=SURFACE_STYLE_USAGE(.BOTH.,#1041);
#1041=SURFACE_SIDE_STYLE('',(#1042));
#1042=SURFACE_STYLE_FILL_AREA(#1043);
#1043=FILL_AREA_STYLE('Steel - Satin',(#1044));
#1044=FILL_AREA_STYLE_COLOUR('Steel - Satin',#1045);
#1045=COLOUR_RGB('Steel - Satin',0.627450980392157,0.627450980392157,0.627450980392157);
ENDSEC;
END-ISO-10303-21;
